<?xml version="1.0" encoding="UTF-8" standalone="no"?>
<svg width="256px" height="256px" viewBox="0 0 256 256" version="1.1" xmlns="http://www.w3.org/2000/svg" xmlns:xlink="http://www.w3.org/1999/xlink" xmlns:sketch="http://www.bohemiancoding.com/sketch/ns">
    <!-- Generator: Sketch 3.5.1 (25234) - http://www.bohemiancoding.com/sketch -->
    <title>frameworks/logo_python</title>
    <desc>Created with Sketch.</desc>
    <defs>
        <linearGradient x1="12.9593594%" y1="11.6996305%" x2="79.6388325%" y2="78.4532626%" id="linearGradient-1">
            <stop stop-color="#387EB8" offset="0%"></stop>
            <stop stop-color="#366994" offset="100%"></stop>
        </linearGradient>
        <linearGradient x1="19.127525%" y1="20.315846%" x2="90.7415328%" y2="88.7730019%" id="linearGradient-2">
            <stop stop-color="#FFE052" offset="0%"></stop>
            <stop stop-color="#FFC331" offset="100%"></stop>
        </linearGradient>
    </defs>
    <g id="Page-1" stroke="none" stroke-width="1" fill="none" fill-rule="evenodd" sketch:type="MSPage">
        <g id="frameworks/logo_python" sketch:type="MSArtboardGroup">
            <g id="logo_python" sketch:type="MSLayerGroup" transform="translate(58.000000, 59.000000)">
                <g id="svg2169" sketch:type="MSShapeGroup">
                    <g id="layer1" transform="translate(0.784884, 0.338459)">
                        <g id="g1894" transform="translate(0.519940, 0.315026)">
                            <path d="M68.4649123,0.576603982 C34.0399782,0.576606442 36.189693,15.5298673 36.189693,15.5298673 L36.2280702,31.0212942 L69.0789474,31.0212942 L69.0789474,35.6725664 L23.1798246,35.6725664 C23.1798246,35.6725664 1.15131579,33.1702269 1.15131579,67.9623894 C1.15131333,102.754545 20.3782895,101.520741 20.3782895,101.520741 L31.8530702,101.520741 L31.8530702,85.3758296 C31.8530702,85.3758296 31.2345502,66.1172566 50.7730263,66.1172566 L83.3552632,66.1172566 C83.3552632,66.1172566 101.661184,66.4136588 101.661184,48.3962942 L101.661184,18.6050885 C101.661184,18.605086 104.440528,0.576603982 68.4649123,0.576603982 L68.4649123,0.576603982 Z M50.3508772,10.9939159 C53.6192988,10.9939135 56.2609649,13.6399236 56.2609649,16.9137168 C56.2609674,20.18751 53.6192988,22.8335177 50.3508772,22.8335177 C47.0824556,22.8335202 44.4407895,20.18751 44.4407895,16.9137168 C44.440787,13.6399236 47.0824556,10.9939159 50.3508772,10.9939159 L50.3508772,10.9939159 Z" id="path8615" fill="url(#linearGradient-1)"></path>
                            <path d="M69.4425789,135.697028 C103.867523,135.697028 101.717798,120.743765 101.717798,120.743765 L101.679421,105.252338 L68.8285439,105.252338 L68.8285439,100.601065 L114.727667,100.601065 C114.727667,100.601065 136.756175,103.103398 136.756175,68.3112302 C136.756188,33.5190787 117.529202,34.7528821 117.529202,34.7528821 L106.054421,34.7528821 L106.054421,50.8977899 C106.054421,50.8977899 106.672951,70.1563629 87.1344649,70.1563629 L54.5522256,70.1563629 C54.5522256,70.1563629 36.2463046,69.8599608 36.2463046,87.8773376 L36.2463046,117.668543 C36.2463046,117.668543 33.4669607,135.697028 69.4425789,135.697028 L69.4425789,135.697028 Z M87.556614,125.279716 C84.2881912,125.279716 81.6465263,122.633709 81.6465263,119.359915 C81.6465263,116.086121 84.2881912,113.440114 87.556614,113.440114 C90.8250368,113.440114 93.4667018,116.086121 93.4667018,119.359915 C93.466714,122.633709 90.8250368,125.279716 87.556614,125.279716 L87.556614,125.279716 Z" id="path8620" fill="url(#linearGradient-2)"></path>
                        </g>
                    </g>
                </g>
            </g>
        </g>
    </g>
</svg>