<?xml version="1.0" encoding="iso-8859-1"?>
<!-- Generator: Adobe Illustrator 18.0.0, SVG Export Plug-In . SVG Version: 6.00 Build 0)  -->
<!DOCTYPE svg PUBLIC "-//W3C//DTD SVG 1.1//EN" "http://www.w3.org/Graphics/SVG/1.1/DTD/svg11.dtd">
<svg version="1.1" id="Capa_1" xmlns="http://www.w3.org/2000/svg" xmlns:xlink="http://www.w3.org/1999/xlink" x="0px" y="0px"
	 viewBox="0 0 512 512" style="enable-background:new 0 0 512 512;" xml:space="preserve">
<g>
	<g>
		<path style="fill:#566E7F;" d="M320,64c-11.813,0-22.018,6.475-27.561,16h-72.878c-5.543-9.525-15.748-16-27.561-16
			c-17.672,0-32,14.328-32,32c0,17.672,14.328,32,32,32c11.813,0,22.018-6.476,27.561-16H240v32c0,8.836-7.164,16-16,16h-16
			c-4.418,0-8,3.582-8,8c0,4.418,3.582,8,8,8h96c4.418,0,8-3.582,8-8c0-4.418-3.582-8-8-8h-16c-8.836,0-16-7.164-16-16v-32h20.439
			c5.543,9.524,15.748,16,27.561,16c16.438,0,32-14.328,32-32C352,78.328,337.672,64,320,64z"/>
		<path style="fill:#3F556B;" d="M325.654,64.57C331.977,70.416,336,78.71,336,88c0,17.672-15.563,32-32,32
			c-1.937,0-3.812-0.241-5.654-0.57c5.705,5.275,13.271,8.57,21.654,8.57c16.438,0,32-14.328,32-32
			C352,80.265,340.62,67.25,325.654,64.57z"/>
		<path style="fill:#566E7F;" d="M464,339.719V220.281c0-2.675,1.337-5.173,3.562-6.656l18.422-12.281
			c1.314-0.876,2.858-1.344,4.438-1.344H504c4.418,0,8,3.582,8,8v144c0,4.418-3.582,8-8,8h-13.578c-1.579,0-3.123-0.467-4.438-1.344
			l-18.422-12.281C465.337,344.891,464,342.393,464,339.719z"/>
		<path style="fill:#566E7F;" d="M111,448H1c-0.552,0-1-0.448-1-1v-46c0-0.552,0.448-1,1-1h110c0.552,0,1,0.448,1,1v46
			C112,447.552,111.552,448,111,448z"/>
		<rect x="432" y="248" style="fill:#566E7F;" width="32" height="64"/>
		<path style="fill:#B1C3D0;" d="M416,232h-86.327c-4.336-6.635-9.483-12.751-15.533-18.041c-6.667-5.83-10.14-14.508-10.14-23.365
			L304,176h-96l0,14.597c0,8.857-3.475,17.533-10.142,23.364c-6.05,5.291-11.203,11.403-15.539,18.039H136
			C65.308,232,8,289.308,8,360v40h96v-40c0-17.673,13.667-32,32-32h46.306c14.107,21.474,37.374,36.568,63.84,39.46
			c34.801,3.803,66.299-12.899,83.686-39.46H416c8.837,0,16-7.163,16-16v-64C432,239.163,424.837,232,416,232z"/>
		<path style="fill:#8EADBE;" d="M413.313,232.219c-7.867,1.28-13.313,8.667-13.313,16.637V296c0,8.836-7.164,16-16,16h-45.983
			c1.996-5.12,3.573-10.438,4.554-15.958c5.238-29.475-4.313-56.773-22.334-76.054c0.105,0.233,0.177,0.483,0.28,0.717
			c-1.799-2.243-3.761-4.414-6.04-6.448c-6.72-6-10.478-14.653-10.478-23.663V176h-1.602c-7.952,0-14.398,6.446-14.398,14.398v2.267
			c0,7.839,3.363,15.301,9.235,20.493c31.982,28.276,33.726,78.5,2.394,107.495C283.97,335.143,263.032,344,240,344
			c-25.064,0-39.761-8.803-53.705-27.383c-1.054-1.404-1.684-3.054-2.295-4.617h-48c-26.51,0-48,21.49-48,48v8
			c0,8.836-7.164,16-16,16H24c-8.836,0-16,7.163-16,16h80h16v-40c0-17.673,14.327-32,32-32h46.33
			c17.845,27.365,50.445,44.214,86.563,39.081c25.259-3.59,47.389-18.356,60.939-39.081H400h16c8.836,0,16-7.164,16-16v-64
			C432,238.282,423.337,230.588,413.313,232.219z"/>
		<path style="fill:#3F556B;" d="M240,96h-16c0-15.735-11.38-28.75-26.346-31.43C203.977,70.416,208,78.71,208,88
			c0,17.672-15.563,32-32,32c-1.937,0-3.812-0.241-5.654-0.57c5.705,5.275,13.271,8.57,21.654,8.57c10.988,0,21.47-6.476,27.288-16
			H240V96z"/>
		<path style="fill:#3F556B;" d="M272,144v-32h20.439C289.69,107.277,288,101.858,288,96h-16c-8.837,0-16,7.163-16,16v0v32
			c0,8.837,7.163,16,16,16h16C279.164,160,272,152.836,272,144z"/>
		<path style="fill:#3F556B;" d="M464,312h-32v-16h30c1.105,0,2,0.895,2,2V312z"/>
		<path style="fill:#3F556B;" d="M504,200h-8v132.282h-5.578c-1.58,0-3.124-0.468-4.438-1.344l-18.422-12.281
			C465.337,317.173,464,314.675,464,312v27.718c0,2.675,1.337,5.173,3.563,6.657l18.422,12.281c1.314,0.876,2.858,1.344,4.438,1.344
			H496h8c4.418,0,8-3.582,8-8v-16V208C512,203.582,508.418,200,504,200z"/>
		<g>
			<path style="fill:#E2E4E6;" d="M206.031,248c-1.75,0-3.516-0.578-4.992-1.758c-3.453-2.766-4.008-7.797-1.242-11.242
				c13.75-17.156,34.234-27,56.203-27c4.422,0,8,3.578,8,8s-3.578,8-8,8c-17.086,0-33.023,7.656-43.719,21
				C210.703,246.977,208.375,248,206.031,248z"/>
		</g>
		<g>
			<path style="fill:#E2E4E6;" d="M192,288c-4.422,0-8-3.578-8-8c0-6.07,0.766-12.125,2.266-17.984
				c1.109-4.289,5.508-6.852,9.734-5.766c4.281,1.102,6.859,5.461,5.766,9.734C200.594,270.555,200,275.266,200,280
				C200,284.422,196.422,288,192,288z"/>
		</g>
	</g>
	<path style="fill:#3F556B;" d="M104,448c4.418,0,8-3.582,8-8l0-32c-4.418,0-8,3.582-8,8l0,24H16c-4.418,0-8,3.582-8,8H104z"/>
</g>
<g>
</g>
<g>
</g>
<g>
</g>
<g>
</g>
<g>
</g>
<g>
</g>
<g>
</g>
<g>
</g>
<g>
</g>
<g>
</g>
<g>
</g>
<g>
</g>
<g>
</g>
<g>
</g>
<g>
</g>
</svg>
